<svg width="18" height="18" viewBox="0 0 18 18" fill="none" xmlns="http://www.w3.org/2000/svg">
<path d="M1 8.68182C1 12.1748 3.18932 15.157 6.27045 16.3305C6.19546 15.6916 6.11568 14.6382 6.2875 13.8991C6.43546 13.2636 7.24273 9.85045 7.24273 9.85045C7.24273 9.85045 6.99932 9.36295 6.99932 8.64091C6.99932 7.50909 7.65523 6.66364 8.47273 6.66364C9.16818 6.66364 9.50364 7.18523 9.50364 7.81045C9.50364 8.50932 9.05841 9.55386 8.82864 10.5227C8.63705 11.3334 9.23568 11.9948 10.0348 11.9948C11.4823 11.9948 12.5957 10.4682 12.5957 8.26454C12.5957 6.31386 11.1939 4.95091 9.19273 4.95091C6.87591 4.95091 5.51568 6.68886 5.51568 8.48545C5.51568 9.18568 5.785 9.93568 6.12182 10.3441C6.15053 10.3749 6.17082 10.4127 6.18074 10.4536C6.19065 10.4946 6.18985 10.5374 6.17841 10.578C6.11636 10.8357 5.97864 11.3886 5.95205 11.5018C5.91591 11.6505 5.83409 11.6825 5.67932 11.6102C4.66205 11.137 4.02659 9.65 4.02659 8.45545C4.02659 5.88568 5.89273 3.52659 9.4075 3.52659C12.233 3.52659 14.4291 5.54 14.4291 8.23045C14.4291 11.0375 12.6598 13.297 10.2025 13.297C9.37682 13.297 8.60159 12.8675 8.33568 12.3609C8.33568 12.3609 7.92727 13.9168 7.82841 14.2973C7.63614 15.0364 7.10295 15.9718 6.77227 16.503C7.53455 16.7375 8.34318 16.8636 9.18182 16.8636C13.7002 16.8636 17.3636 13.2002 17.3636 8.68182C17.3636 4.16341 13.7002 0.5 9.18182 0.5C4.66341 0.5 1 4.16341 1 8.68182Z" fill="#1F2128"/>
</svg>
